<svg width="28" height="28" viewBox="0 0 28 28" fill="none" xmlns="http://www.w3.org/2000/svg">
<circle cx="14" cy="14" r="14" fill="white"/>
<circle cx="14" cy="14" r="13.5" stroke="black" stroke-opacity="0.2"/>
<path d="M12.7087 20.3038V14.7503H10.8398V12.5859H12.7087V10.9898C12.7087 9.13752 13.84 8.12891 15.4924 8.12891C16.2839 8.12891 16.9642 8.18784 17.1624 8.21417V10.1499L16.0164 10.1505C15.1178 10.1505 14.9438 10.5775 14.9438 11.2041V12.5859H17.087L16.8079 14.7503H14.9438V20.3038H12.7087Z" fill="black"/>
<path d="M14.4438 14.7503V19.8038H13.2087V14.7503V14.2503H12.7087H11.3398V13.0859H12.7087H13.2087V12.5859V10.9898C13.2087 10.167 13.4576 9.5908 13.8324 9.22036C14.2088 8.84839 14.7677 8.62891 15.4924 8.62891C15.9474 8.62891 16.3625 8.64896 16.6624 8.67016V9.65016L16.0164 9.65045C16.0163 9.65045 16.0163 9.65045 16.0162 9.65045C15.5003 9.65049 15.0534 9.77247 14.7606 10.1203C14.484 10.4488 14.4438 10.8694 14.4438 11.2041V12.5859V13.0859H14.9438H16.5184L16.3682 14.2503H14.9438H14.4438V14.7503Z" stroke="black" stroke-opacity="0.2"/>
</svg>
